<?xml version="1.0" encoding="iso-8859-1"?>
<!-- Generator: Adobe Illustrator 19.0.0, SVG Export Plug-In . SVG Version: 6.00 Build 0)  -->
<svg version="1.1" id="Layer_1" xmlns="http://www.w3.org/2000/svg" xmlns:xlink="http://www.w3.org/1999/xlink" x="0px" y="0px"
	 viewBox="0 0 512 512" style="enable-background:new 0 0 512 512;" xml:space="preserve">
<path style="fill:#4DB1E0;" d="M151.044,414.07c-60.922,9.74-69.542,64.223-70.412,87.444C80.418,507.246,85.019,512,90.756,512
	h60.288V414.07z"/>
<path style="opacity:0.1;enable-background:new    ;" d="M141.889,415.974C116.722,440.607,100.583,474.42,98.89,512h52.154v-97.93
	C147.846,414.581,144.805,415.227,141.889,415.974z"/>
<path style="fill:#4DB1E0;" d="M360.966,414.07c60.922,9.74,69.542,64.223,70.412,87.444c0.215,5.733-4.387,10.486-10.123,10.486
	h-60.288v-97.93H360.966z"/>
<path style="opacity:0.1;enable-background:new    ;" d="M370.121,415.974c25.166,24.633,41.306,58.446,42.999,96.026h-52.154
	v-97.93C364.164,414.581,367.205,415.227,370.121,415.974z"/>
<path style="fill:#4DB1E0;" d="M399.567,512c0-79.287-64.275-143.562-143.562-143.562S112.443,432.713,112.443,512H399.567z"/>
<path style="fill:#E8E8E8;" d="M399.567,397.74L399.567,397.74c0,16.773-9.859,31.979-25.172,38.823l-36.775,16.438
	c-23.271,10.402-38.254,33.509-38.256,58.999l0,0h-86.718l0,0c-0.002-25.49-14.986-48.597-38.256-58.999l-36.775-16.438
	c-15.313-6.844-25.172-22.05-25.172-38.823l0,0c0-21.74,17.624-39.364,39.364-39.364h208.395
	C381.943,358.376,399.567,376,399.567,397.74z"/>
<g>
	<path style="fill:#394049;" d="M143.559,410.164c-9.686,0-18.08,5.506-22.239,13.556c4.209,5.453,9.748,9.917,16.295,12.843
		l27.035,12.085c2.486-3.887,3.933-8.503,3.933-13.46C168.583,421.367,157.379,410.164,143.559,410.164z"/>
	<circle style="fill:#394049;" cx="211.725" cy="414.31" r="25.02"/>
	<path style="fill:#394049;" d="M256.005,449.73c-14.461,0-26.184,11.723-26.184,26.184s11.723,26.184,26.184,26.184V449.73z"/>
	<path style="fill:#394049;" d="M311.233,435.188c-13.82,0-25.024,11.204-25.024,25.024c0,11.841,8.227,21.754,19.275,24.353
		c6.137-13.078,16.589-23.971,29.996-30.559C332.719,443.188,322.91,435.188,311.233,435.188z"/>
	<circle style="fill:#394049;" cx="350.255" cy="396.85" r="25.02"/>
</g>
<rect x="248.505" y="413.73" style="fill:#E8E8E8;" width="15" height="98.27"/>
<rect x="248.505" y="413.73" style="opacity:0.1;enable-background:new    ;" width="15" height="98.27"/>
<circle style="fill:#8D6A59;" cx="88.035" cy="257.18" r="39.1"/>
<path style="opacity:0.07;enable-background:new    ;" d="M88.04,218.086c-3.195,0-6.297,0.392-9.27,1.115
	c-2.821,12.205-4.313,24.919-4.313,37.981c0,13.062,1.492,25.776,4.313,37.981c2.973,0.723,6.075,1.115,9.27,1.115
	c21.592,0,39.096-17.504,39.096-39.096C127.136,235.59,109.633,218.086,88.04,218.086z"/>
<circle style="fill:#8D6A59;" cx="423.965" cy="257.18" r="39.1"/>
<path style="opacity:0.07;enable-background:new    ;" d="M423.97,218.086c3.195,0,6.297,0.392,9.27,1.115
	c2.821,12.205,4.313,24.919,4.313,37.981c0,13.062-1.492,25.776-4.313,37.981c-2.973,0.723-6.075,1.115-9.27,1.115
	c-21.592,0-39.096-17.504-39.096-39.096C384.874,235.59,402.377,218.086,423.97,218.086z"/>
<path style="opacity:0.1;enable-background:new    ;" d="M360.202,358.376H151.808c-12.222,0-23.143,5.571-30.363,14.311
	c30.632,40.931,79.503,67.422,134.561,67.422s103.928-26.491,134.561-67.422C383.346,363.947,372.425,358.376,360.202,358.376z"/>
<circle style="fill:#8D6A59;" cx="256.005" cy="257.18" r="167.97"/>
<g>
	<path style="fill:#394049;" d="M154.164,258.869c-4.143,0-7.5-3.357-7.5-7.5v-20.397c0-4.143,3.357-7.5,7.5-7.5s7.5,3.357,7.5,7.5
		v20.397C161.664,255.512,158.307,258.869,154.164,258.869z"/>
	<path style="fill:#394049;" d="M357.846,258.869c-4.143,0-7.5-3.357-7.5-7.5v-20.397c0-4.143,3.357-7.5,7.5-7.5s7.5,3.357,7.5,7.5
		v20.397C365.346,255.512,361.988,258.869,357.846,258.869z"/>
</g>
<g>
	<path style="fill:#EC8087;" d="M167.874,287.067h-27.419c-4.143,0-7.5-3.357-7.5-7.5s3.357-7.5,7.5-7.5h27.419
		c4.143,0,7.5,3.357,7.5,7.5S172.017,287.067,167.874,287.067z"/>
	<path style="fill:#EC8087;" d="M371.548,287.067h-27.419c-4.143,0-7.5-3.357-7.5-7.5s3.357-7.5,7.5-7.5h27.419
		c4.142,0,7.5,3.357,7.5,7.5S375.69,287.067,371.548,287.067z"/>
</g>
<g>
	<path style="fill:#394049;" d="M256.005,287.067c-9.058,0-17.701-4.362-23.12-11.669c-2.467-3.327-1.77-8.024,1.557-10.492
		c3.326-2.465,8.024-1.772,10.492,1.557c2.642,3.562,6.677,5.605,11.071,5.605s8.43-2.043,11.071-5.605
		c2.469-3.327,7.167-4.023,10.492-1.557c3.327,2.468,4.023,7.165,1.557,10.492C273.706,282.705,265.063,287.067,256.005,287.067z"/>
	<circle style="fill:#394049;" cx="107.965" cy="201.4" r="27.343"/>
	<circle style="fill:#394049;" cx="404.035" cy="201.4" r="27.343"/>
</g>
<path style="fill:#F6D83E;" d="M124.131,154.032c-8.126-14.365-13.71-35.717-14.574-55.724c-0.754-17.51,1.585-41.965,17.022-59.036
	c24.184-26.742,63.307-17.378,91.869-4.815l-10.019,22.78c-21.068-9.266-49.162-17.007-63.39-1.272
	c-17.055,18.859-11.389,64.35,0.755,85.815L124.131,154.032z"/>
<path style="opacity:0.05;enable-background:new    ;" d="M124.131,154.032c-8.126-14.365-13.71-35.717-14.574-55.724
	c-0.754-17.51,1.585-41.965,17.022-59.036c24.184-26.742,63.307-17.378,91.869-4.815l-10.019,22.78
	c-21.068-9.266-49.162-17.007-63.39-1.272c-17.055,18.859-11.389,64.35,0.755,85.815L124.131,154.032z"/>
<path style="fill:#F6D83E;" d="M387.873,154.032l-21.662-12.253c12.143-21.465,17.809-66.956,0.754-85.815
	c-14.228-15.734-42.325-7.992-63.39,1.272l-10.019-22.78c28.562-12.563,67.685-21.929,91.869,4.815
	c8.52,9.422,18.39,27.313,17.022,59.036C401.583,118.315,395.998,139.667,387.873,154.032z"/>
<path style="opacity:0.05;enable-background:new    ;" d="M387.873,154.032l-21.662-12.253
	c12.143-21.465,17.809-66.956,0.754-85.815c-14.228-15.734-42.325-7.992-63.39,1.272l-10.019-22.78
	c28.562-12.563,67.685-21.929,91.869,4.815c8.52,9.422,18.39,27.313,17.022,59.036C401.583,118.315,395.998,139.667,387.873,154.032
	z"/>
<g>
	<circle style="fill:#E36566;" cx="159.245" cy="108.89" r="70.33"/>
	<circle style="fill:#E36566;" cx="352.765" cy="108.89" r="70.33"/>
	<circle style="fill:#E36566;" cx="256.005" cy="108.89" r="70.33"/>
</g>
<g>
	<path style="fill:#F6D83E;" d="M315.909,158.174l-23.519-8.136c13.55-39.169,15.144-68.142,4.74-86.116
		c-7.169-12.385-20.637-20.512-41.128-24.804c-20.491,4.292-33.958,12.419-41.128,24.804c-10.404,17.974-8.809,46.947,4.74,86.116
		l-23.519,8.136c-16.243-46.958-17.146-81.866-2.759-106.72c11.117-19.205,31.418-31.737,60.337-37.249l2.329-0.444l2.329,0.444
		c28.919,5.512,49.219,18.043,60.337,37.249C333.054,76.308,332.152,111.216,315.909,158.174z"/>
	<path style="fill:#F6D83E;" d="M413.988,189.851H98.022c-6.212,0-11.248-5.036-11.248-11.248v-27.747
		c0-6.212,5.036-11.248,11.248-11.248h315.966c6.212,0,11.248,5.036,11.248,11.248v27.747
		C425.236,184.815,420.2,189.851,413.988,189.851z"/>
</g>
<circle style="fill:#4DB1E0;" cx="256.005" cy="164.73" r="8.394"/>
<circle style="fill:#EC8087;" cx="194.595" cy="164.73" r="8.394"/>
<circle style="fill:#4DB1E0;" cx="133.175" cy="164.73" r="8.394"/>
<circle style="fill:#EC8087;" cx="317.425" cy="164.73" r="8.394"/>
<circle style="fill:#4DB1E0;" cx="378.835" cy="164.73" r="8.394"/>
<circle style="fill:#F6D83E;" cx="256.005" cy="26.429" r="26.429"/>
<g>
</g>
<g>
</g>
<g>
</g>
<g>
</g>
<g>
</g>
<g>
</g>
<g>
</g>
<g>
</g>
<g>
</g>
<g>
</g>
<g>
</g>
<g>
</g>
<g>
</g>
<g>
</g>
<g>
</g>
</svg>
