<?xml version="1.0" encoding="iso-8859-1"?>
<!-- Generator: Adobe Illustrator 19.0.0, SVG Export Plug-In . SVG Version: 6.00 Build 0)  -->
<svg version="1.1" id="Capa_1" xmlns="http://www.w3.org/2000/svg" xmlns:xlink="http://www.w3.org/1999/xlink" x="0px" y="0px"
	 viewBox="0 0 512.001 512.001" style="enable-background:new 0 0 512.001 512.001;" xml:space="preserve">
<path style="fill:#D1E7F8;" d="M291.828,384.809v-79.931h-71.655v79.931L144.95,398.33c-26.823,4.822-46.342,28.162-46.342,55.416
	v27.721c0,12.721,10.312,23.033,23.033,23.033h268.718c12.721,0,23.033-10.312,23.033-23.033v-27.721
	c0-27.253-19.519-50.594-46.342-55.416L291.828,384.809z"/>
<path style="fill:#B9D8F4;" d="M219.257,433.456c1.053,0.941,9.738,15.69,36.741,15.69s35.687-14.749,36.74-15.69
	c51.263-2.957,67.397-34.985,68.194-36.226l-69.106-12.422v-79.931H220.17v79.931l-69.101,12.421
	C151.866,398.471,170.5,431.75,219.257,433.456z"/>
<g>
	<path style="fill:#3E3D42;" d="M285.807,504.5l-20.461-45.781c-3.611-8.08-15.081-8.08-18.692,0L226.193,504.5H285.807z"/>
	<path style="fill:#3E3D42;" d="M154.347,446.13c-3.313-2.486-3.984-7.187-1.498-10.5l7.317-9.752
		c2.486-3.313,7.187-3.984,10.5-1.498s3.984,7.187,1.498,10.5l-7.317,9.752C162.361,447.945,157.66,448.616,154.347,446.13z"/>
	<path style="fill:#3E3D42;" d="M191.945,466.595c-3.313-2.486-3.984-7.187-1.498-10.5l7.317-9.752
		c2.486-3.313,7.187-3.984,10.5-1.498s3.984,7.187,1.498,10.5l-7.317,9.752C199.959,468.41,195.258,469.081,191.945,466.595z"/>
	<path style="fill:#3E3D42;" d="M153.347,489.454c-3.313-2.486-3.984-7.187-1.498-10.5l7.317-9.752
		c2.486-3.313,7.187-3.984,10.5-1.498s3.984,7.187,1.498,10.5l-7.317,9.752C161.361,491.27,156.66,491.94,153.347,489.454z"/>
	<path style="fill:#3E3D42;" d="M357.653,446.13c3.313-2.486,3.984-7.187,1.498-10.5l-7.317-9.752
		c-2.486-3.313-7.187-3.984-10.5-1.498s-3.984,7.187-1.498,10.5l7.317,9.752C349.639,447.945,354.34,448.616,357.653,446.13z"/>
	<path style="fill:#3E3D42;" d="M320.056,466.595c3.313-2.486,3.984-7.187,1.498-10.5l-7.317-9.752
		c-2.486-3.313-7.187-3.984-10.5-1.498s-3.984,7.187-1.498,10.5l7.317,9.752C312.041,468.41,316.742,469.081,320.056,466.595z"/>
	<path style="fill:#3E3D42;" d="M358.653,489.454c3.313-2.486,3.984-7.187,1.498-10.5l-7.317-9.752
		c-2.486-3.313-7.187-3.984-10.5-1.498s-3.984,7.187-1.498,10.5l7.317,9.752C350.639,491.27,355.34,491.94,358.653,489.454z"/>
</g>
<path style="fill:#663A00;" d="M124.195,255.996c0,0-41.082,40.854-6.582,82.929c0,0,1.702,12.646-5.99,23.512
	c-3.251,4.592-0.684,11.021,4.782,12.354c15.911,3.88,43.86,4.764,65.708-22.996C181.612,350.5,160.619,256,160.619,256
	L124.195,255.996z"/>
<path style="fill:#9A4C00;" d="M387.151,255.996c0,0,41.082,40.854,6.582,82.929c0,0-1.702,12.646,5.99,23.512
	c3.251,4.592,0.684,11.021-4.782,12.354c-15.911,3.88-43.86,4.764-65.708-22.996c0.5-1.295,21.494-95.795,21.494-95.795
	L387.151,255.996z"/>
<circle style="fill:#FFB655;" cx="143.62" cy="234.39" r="30.09"/>
<circle style="fill:#FFA733;" cx="143.62" cy="234.39" r="18.537"/>
<circle style="fill:#FFC477;" cx="368.38" cy="234.39" r="30.09"/>
<circle style="fill:#FFB655;" cx="368.38" cy="234.39" r="18.537"/>
<path style="fill:#FFDAAA;" d="M256,357.895L256,357.895c-58.787,0-106.886-48.099-106.886-106.886V161.89
	c0-58.787,48.099-106.886,106.886-106.886l0,0c58.787,0,106.886,48.099,106.886,106.886v89.119
	C362.886,309.797,314.787,357.895,256,357.895z"/>
<g>
	<circle style="fill:#4E901E;" cx="207.17" cy="208.69" r="12.5"/>
	<circle style="fill:#4E901E;" cx="309.94" cy="208.69" r="12.5"/>
</g>
<path style="fill:#FFC477;" d="M295.273,346.785c-58.787,0-106.886-48.099-106.886-106.886V150.78
	c0-41.545,24.025-77.747,58.865-95.412c-54.736,4.488-98.138,50.681-98.138,106.523v89.119c0,58.787,48.099,106.886,106.886,106.886
	l0,0c17.242,0,33.562-4.142,48.021-11.474C301.135,346.659,298.218,346.785,295.273,346.785L295.273,346.785z"/>
<path style="fill:#AA6100;" d="M362.886,234.389l-40.165,32.062c-6.72,5.365-16.387,4.872-22.528-1.147l-7.254-7.11
	c-3.16-3.098-8.032-3.625-11.782-1.276l-15.56,9.747c-5.87,3.677-13.326,3.677-19.196,0l-15.56-9.747
	c-3.75-2.349-8.622-1.821-11.782,1.276l-7.254,7.11c-6.141,6.019-15.807,6.512-22.528,1.147l-40.165-32.062
	c0,0-26.973,71.166,18.612,115.571c2.127,1.418-5.672,54.595,63.812,53.886c0,0.332,5.355,5.165,11.054,10.215
	c7.653,6.781,19.161,6.781,26.814,0c5.699-5.05,11.054-9.883,11.054-10.215c69.485,0.709,61.685-52.468,63.812-53.886
	C389.859,305.555,362.886,234.389,362.886,234.389z"/>
<g>
	<path style="fill:#9A4C00;" d="M275.363,397.775c-2.851-3.087-6.798-4.963-10.996-5.134c-48.413-1.975-56.25-33.117-57.32-47.093
		c-0.341-4.453-2.163-8.662-5.083-12.042c-19.808-22.928-22.817-51.461-21.076-73.754l-31.774-25.363
		c0,0-26.973,71.167,18.612,115.571c2.127,1.418-5.672,54.595,63.812,53.886c0,0.332,5.355,5.165,11.053,10.214
		c7.654,6.781,19.163,6.781,26.816,0c5.699-5.049,11.053-9.882,11.053-10.214C280.921,403.851,278.079,400.717,275.363,397.775z"/>
	<circle style="fill:#9A4C00;" cx="256" cy="351.8" r="7.5"/>
	<circle style="fill:#9A4C00;" cx="287.77" cy="369.95" r="7.5"/>
	<circle style="fill:#9A4C00;" cx="287.77" cy="331.43" r="7.5"/>
</g>
<path style="fill:#FFC477;" d="M256,294L256,294c-11.275,0-20.5-9.225-20.5-20.5v-18.611c0-11.275,9.225-20.5,20.5-20.5l0,0
	c11.275,0,20.5,9.225,20.5,20.5V273.5C276.5,284.775,267.275,294,256,294z"/>
<path style="fill:#FFB655;" d="M256,273.919v-18.611c0-7.687,4.292-14.414,10.594-17.922c-3.099-1.888-6.719-2.997-10.594-2.997
	c-11.275,0-20.5,9.225-20.5,20.5V273.5c0,11.275,9.225,20.5,20.5,20.5c3.588,0,6.965-0.941,9.906-2.578
	C259.987,287.816,256,281.319,256,273.919z"/>
<g>
	<path style="fill:#9A4C00;" d="M148.913,170.576c0,0-21.641,4.823-27.049,43.036c5.479-5.736,13.197-9.314,21.755-9.314
		c1.876,0,3.709,0.18,5.49,0.509l0.005-0.004c0,0,40.296-1.252,72.815-58.886C221.93,145.917,178.391,150.995,148.913,170.576z"/>
	<path style="fill:#9A4C00;" d="M368.381,204.298c8.558,0,16.276,3.579,21.755,9.314c-5.407-38.213-27.049-43.036-27.049-43.036
		c-29.478-19.582-73.016-24.66-73.016-24.66c32.519,57.634,72.815,58.886,72.815,58.886S366.505,204.298,368.381,204.298z"/>
</g>
<path style="fill:#663A00;" d="M149.109,204.807l0.005-0.004c0,0,17.794-0.56,39.273-17.839v-33.835
	c-12.868,3.802-27.358,9.399-39.474,17.448c0,0-21.641,4.823-27.049,43.036c5.479-5.736,13.197-9.314,21.755-9.314
	C145.495,204.298,147.328,204.478,149.109,204.807z"/>
<path style="fill:#FF0C38;" d="M149.114,95.419c0,0-48.037-87.919,106.886-87.919s106.886,87.919,106.886,87.919l-106.889,37.36
	L149.114,95.419z"/>
<path style="fill:#D80027;" d="M233.56,8.188c-127.636,8.179-84.448,87.235-84.448,87.235l54.391,19.012
	c-3.776-10.135-5.839-21.051-5.839-32.431C197.664,52.365,211.617,25.859,233.56,8.188z"/>
<path style="fill:#FFDA44;" d="M149.114,129.928v-44.16c0-7.938,9.106-12.426,15.402-7.592l46.461,35.678L149.114,129.928z"/>
<path style="fill:#FFD422;" d="M188.388,96.507l-23.872-18.331c-6.296-4.834-15.402-0.346-15.402,7.592v44.16l39.273-10.204
	L188.388,96.507L188.388,96.507z"/>
<g>
	<path style="fill:#FFDA44;" d="M362.886,129.928v-44.16c0-7.938-9.106-12.426-15.402-7.592l-46.461,35.678L362.886,129.928z"/>
	<path style="fill:#FFDA44;" d="M247.707,66.215l-28.823,49.923h74.225l-28.823-49.923
		C260.602,59.833,251.392,59.833,247.707,66.215z"/>
</g>
<path style="fill:#FFE477;" d="M256,104.373c0,0-57.431,1.214-106.886,25.555v40.648c0,0,50.518-26.943,106.886-26.943
	s106.886,26.943,106.886,26.943v-40.648C313.431,105.587,256,104.373,256,104.373z"/>
<circle style="fill:#FF3F62;" cx="256" cy="124.06" r="12.645"/>
<path style="fill:#FFDA44;" d="M188.388,115.184c-12.857,3.594-26.337,8.376-39.273,14.743v40.648c0,0,15.664-8.351,39.273-15.755
	V115.184z"/>
<circle cx="210.1" cy="129.93" r="7.5"/>
<circle cx="301.9" cy="129.93" r="7.5"/>
<path d="M417.994,434.708c-1.236-3.953-5.44-6.157-9.396-4.92c-3.954,1.236-6.156,5.442-4.92,9.396
	c1.47,4.703,2.215,9.602,2.215,14.563v27.721c0,8.565-6.968,15.533-15.533,15.533h-99.69l-18.477-41.341
	c-2.894-6.477-9.099-10.5-16.193-10.5s-13.299,4.023-16.193,10.5L221.33,497h-99.689c-8.565,0-15.534-6.968-15.534-15.533v-27.721
	c0-23.649,16.894-43.85,40.17-48.034l37.108-6.671c11.182,7.916,26.224,12.055,44.988,12.299c0.456,0.426,5.962,5.424,9.246,8.333
	c5.239,4.643,11.81,6.964,18.38,6.964c6.571,0,13.142-2.321,18.381-6.964c3.282-2.908,8.79-7.907,9.246-8.333
	c18.762-0.246,33.805-4.384,44.988-12.3l37.109,6.671c7.781,1.398,15.176,4.7,21.383,9.548c1.371,1.07,2.997,1.589,4.611,1.589
	c2.23,0,4.438-0.991,5.917-2.884c2.549-3.265,1.97-7.978-1.295-10.527c-8.122-6.342-17.791-10.661-27.962-12.49l-27.049-4.862
	c2.174-3.228,3.855-6.532,5.156-9.767c11.237,6.068,22.474,7.957,32.062,7.957c7.232,0,13.526-1.065,18.173-2.198
	c5.04-1.229,9.134-4.867,10.953-9.731c1.787-4.78,1.104-10.104-1.826-14.243c-4.307-6.083-4.801-13.118-4.768-16.364
	c18.397-23.854,15.291-47.198,9.301-62.751c-3.546-9.208-8.462-16.692-12.255-21.652c4.913-6.354,7.847-14.312,7.847-22.947
	c0-8.93-3.099-17.38-8.778-24.136c-4.765-29.209-18.822-40.576-26.807-44.748V97.24c7.693-15.514,14.406-47.88-10.684-70.688
	c-3.065-2.787-7.81-2.559-10.595,0.505c-2.786,3.065-2.56,7.809,0.505,10.595c11.487,10.442,13.608,23.118,12.65,33.586
	c-0.453-0.278-10.71-6.238-19.346,0.99l-39.57,30.386c-3.631-0.724-7.136-1.356-10.487-1.909l-22.078-38.241
	c-3.086-5.345-8.614-8.535-14.785-8.535c-6.172,0-11.698,3.191-14.784,8.536l-22.079,38.242c-3.349,0.553-6.852,1.185-10.48,1.908
	l-39.569-30.386c-10.531-7.478-18.83-1.304-19.255-1.048c-0.707-7.597,0.16-16.311,4.978-24.378C167.233,25.997,202.225,15,256,15
	c27.747,0,50.561,2.899,67.808,8.616c3.933,1.304,8.176-0.828,9.479-4.759c1.303-3.932-0.828-8.176-4.759-9.479
	C309.755,3.155,285.354,0,256,0c-60.298,0-98.704,13.204-114.15,39.244c-14.383,24.249-3.641,50.783-0.236,57.945l0.003,68.313
	c-7.985,4.171-22.046,15.539-26.811,44.757c-5.672,6.759-8.777,15.233-8.777,24.129c0,8.443,2.799,16.243,7.516,22.526
	c-4.996,6.442-11.778,16.978-15.161,30.115c-4.967,19.291-0.858,38.154,11.882,54.706c0.035,3.273-0.465,10.295-4.765,16.369
	c-2.931,4.139-3.613,9.464-1.827,14.244c1.819,4.864,5.913,8.502,10.953,9.731c4.63,1.129,10.921,2.196,18.164,2.196
	c9.735,0,21.185-1.938,32.607-8.24c1.317,3.326,3.037,6.73,5.275,10.053l-27.049,4.862c-30.43,5.47-52.516,31.88-52.516,62.797
	v27.721c0,16.836,13.697,30.533,30.534,30.533H390.36c16.836,0,30.533-13.697,30.533-30.533v-27.721
	C420.893,447.266,419.917,440.86,417.994,434.708z M387.934,334.17c-0.882,1.076-1.448,2.376-1.633,3.755
	c-0.085,0.636-1.988,15.722,7.302,28.846c0.042,0.06,0.284,0.562-0.438,0.733c-9.158,2.173-26.308,4.147-42.726-6.242
	c0.416-2.898,0.772-7.477,0.785-7.647c19.058-19.571,28.367-46.63,26.943-78.429c-0.067-1.501-0.157-2.979-0.266-4.432
	c3.13-0.82,6.099-2.039,8.857-3.592c3.024,4.046,6.837,9.982,9.622,17.215C403.247,302.208,400.405,318.961,387.934,334.17z
	 M283.195,248.235c-2.995-12.237-14.048-21.346-27.195-21.346s-24.2,9.109-27.195,21.346c-5.325-0.973-10.929,0.618-14.995,4.603
	l-7.253,7.11c-3.43,3.362-8.846,3.637-12.599,0.642l-37.344-29.809v-19.539c13.579-2.979,43.632-14.322,69.41-57.441
	c0.042-0.071,0.075-0.145,0.115-0.217c9.586-1.514,19.64-2.449,29.861-2.449c10.222,0,20.276,0.935,29.862,2.449
	c0.041,0.074,0.075,0.15,0.119,0.223c25.776,43.114,55.827,54.455,69.406,57.435v19.539l-37.344,29.809
	c-3.751,2.997-9.168,2.721-12.599-0.641l-7.253-7.11C294.124,248.852,288.519,247.262,283.195,248.235z M269,254.889V273.5
	c0,7.168-5.832,13-13,13l0,0c-7.168,0-13-5.832-13-13v-18.611c0-7.168,5.832-13,13-13S269,247.72,269,254.889z M156.614,134.662
	c30.198-13.926,63.067-19.374,82.461-21.484c-2.029,3.143-3.221,6.875-3.221,10.886c0,4.813,1.701,9.233,4.527,12.701
	c-36.103,2.871-67.755,14.855-83.768,21.932L156.614,134.662L156.614,134.662z M355.386,134.662v24.036
	c-16.012-7.077-47.665-19.061-83.768-21.932c2.826-3.469,4.527-7.889,4.527-12.701c0-4.011-1.192-7.743-3.221-10.886
	C292.32,115.288,325.188,120.736,355.386,134.662z M256,118.919c2.837,0,5.146,2.308,5.146,5.146c0,2.837-2.308,5.145-5.146,5.145
	c-2.837,0-5.145-2.308-5.145-5.145C250.855,121.227,253.163,118.919,256,118.919z M384.561,218.642
	c4.13,4.241,6.411,9.816,6.411,15.747c0,9.775-6.241,18.117-14.947,21.257c-1.936-11.207-4.559-19.433-5.638-22.555V211.89
	C375.771,212.359,380.738,214.713,384.561,218.642z M368.381,196.798c-1.801,0-4.398,0.299-5.751,0.473
	c-3.913-0.356-30.478-4.058-56.07-39.439c30.519,7.664,61.298,23.895,61.298,23.895c3.424,2.929,7.584,7.963,10.805,16.482
	C375.364,197.278,371.914,196.798,368.381,196.798z M352.052,84.125c0.845-0.649,1.65-0.476,2.178-0.215
	c0.527,0.26,1.156,0.793,1.156,1.858v32.498c-11.14-4.713-22.398-8.39-33.135-11.257L352.052,84.125z M254.203,69.964
	c0.494-0.856,1.249-1.036,1.794-1.036c0.546,0,1.301,0.18,1.795,1.036L274.07,98.16c-10.422-1.098-17.12-1.269-17.912-1.286
	L256,96.872l-0.159,0.003c-0.792,0.017-7.492,0.188-17.918,1.287L254.203,69.964z M157.77,83.91c0.528-0.26,1.333-0.433,2.178,0.215
	l29.801,22.885c-10.737,2.867-21.995,6.544-33.135,11.257V85.768C156.614,84.703,157.243,84.169,157.77,83.91z M144.172,181.699
	c0,0,30.752-16.204,61.274-23.868c-25.587,35.416-52.019,39.083-56.073,39.44c-1.353-0.173-3.952-0.473-5.754-0.473
	c-3.537,0-6.99,0.481-10.291,1.414C136.553,189.665,140.724,184.626,144.172,181.699z M141.614,211.89v21.198
	c-1.085,3.128-3.712,11.351-5.649,22.554c-8.7-3.143-14.937-11.483-14.937-21.253c0-5.811,2.202-11.323,6.195-15.536
	c0.02-0.021,0.043-0.039,0.063-0.06C131.13,214.771,136.159,212.366,141.614,211.89z M118.181,367.504
	c-0.745-0.176-0.48-0.673-0.437-0.734c9.29-13.124,7.387-28.209,7.302-28.845c-0.186-1.379-0.751-2.68-1.633-3.755
	c-22.643-27.615-8.551-54.287,1.361-67.277c2.886,1.68,6.01,2.992,9.315,3.859c-0.637,8.568-0.492,17.995,0.712,27.752
	c0.895,7.251,8.095,6.477,8.435,6.431c4.105-0.553,6.984-4.33,6.431-8.435c-2.646-19.633,0.674-38.306,3.45-49.321l31.485,25.132
	c9.667,7.717,23.621,7.007,32.457-1.652l7.253-7.11c1.492-1.633,3.689,0.437,3.689,0.437v9.513c0,15.439,12.561,28,28,28
	s28-12.561,28-28v-9.513c0,0,1.719-2.403,3.69-0.438l7.253,7.111c8.836,8.66,22.789,9.37,32.457,1.651l31.467-25.118
	c5.051,20.229,11.858,66.251-19.578,97.15c-2.573,2.219-2.811,5.342-3.061,8.631c-0.907,11.909-3.296,43.378-54.399,43.378
	c-0.425,0-4.277-0.436-6.645,2.163c-0.246,0.27-3.477,3.486-10.751,9.932c-4.808,4.259-12.059,4.259-16.867,0
	c-7.275-6.447-10.492-9.675-10.752-9.932c-1.423-1.409-3.322-2.221-5.353-2.169c-52.325,0.552-54.775-31.363-55.69-43.372
	c-0.25-3.29-0.488-6.413-3.062-8.631c-5.977-5.875-10.907-12.612-14.655-20.032c-1.868-3.697-6.378-5.178-10.077-3.312
	c-3.697,1.868-5.18,6.379-3.312,10.077c4.187,8.287,9.6,15.859,16.11,22.54c0.013,0.169,0.351,4.529,0.73,7.259
	C144.896,371.708,127.411,369.688,118.181,367.504z M237.76,497l15.742-35.221c0.63-1.41,1.836-1.62,2.499-1.62
	c0.663,0,1.869,0.21,2.499,1.62L274.24,497H237.76z"/>
<circle cx="173.71" cy="140.28" r="7.5"/>
<circle cx="338.29" cy="140.28" r="7.5"/>
<g>
</g>
<g>
</g>
<g>
</g>
<g>
</g>
<g>
</g>
<g>
</g>
<g>
</g>
<g>
</g>
<g>
</g>
<g>
</g>
<g>
</g>
<g>
</g>
<g>
</g>
<g>
</g>
<g>
</g>
</svg>
